<svg xmlns="http://www.w3.org/2000/svg" viewBox="0 0 64 64" role="img" aria-label="FundRadar">
  <rect width="64" height="64" rx="14" fill="#047857" />
  <circle cx="32" cy="34" r="4" fill="#ffffff" />
  <path
    d="M32 50c-9.94 0-18-8.06-18-18 0-7.22 4.25-13.45 10.39-16.31m7.61-1.69c9.94 0 18 8.06 18 18 0 4.97-2.01 9.47-5.27 12.73"
    fill="none"
    stroke="#ffffff"
    stroke-width="5"
    stroke-linecap="round"
  />
  <path
    d="M22.8 33.8c-.52-4.65 2.37-9.12 6.94-10.55 4.98-1.56 10.34 1.02 12.25 5.88m-4.92 11.7c-4.76 2.55-10.72.96-13.57-3.65"
    fill="none"
    stroke="#ffffff"
    stroke-width="4"
    stroke-linecap="round"
  />
  <path
    d="M32 34 45 17"
    fill="none"
    stroke="#ffffff"
    stroke-width="5"
    stroke-linecap="round"
  />
</svg>
